<?xml version="1.0" encoding="UTF-8" standalone="no"?>
<svg
   xmlns:dc="http://purl.org/dc/elements/1.1/"
   xmlns:cc="http://creativecommons.org/ns#"
   xmlns:rdf="http://www.w3.org/1999/02/22-rdf-syntax-ns#"
   xmlns:svg="http://www.w3.org/2000/svg"
   xmlns="http://www.w3.org/2000/svg"
   viewBox="0 0 1962.425 430.07874"
   height="430.07874"
   width="1962.425"
   xml:space="preserve"
   version="1.1"
   id="svg4248"><metadata
     id="metadata4254"><rdf:RDF><cc:Work
         rdf:about=""><dc:format>image/svg+xml</dc:format><dc:type
           rdf:resource="http://purl.org/dc/dcmitype/StillImage" /><dc:title></dc:title></cc:Work></rdf:RDF></metadata><defs
     id="defs4252"><clipPath
       id="clipPath4262"
       clipPathUnits="userSpaceOnUse"><path
         id="path4264"
         d="m 0,344.063 1569.943,0 L 1569.943,0 0,0 0,344.063 Z" /></clipPath></defs><g
     transform="matrix(1.25,0,0,-1.25,0,430.07875)"
     id="g4256"><g
       id="g4258"><g
         clip-path="url(#clipPath4262)"
         id="g4260"><g
           transform="translate(87.5286,166.7564)"
           id="g4266"><path
             id="path4268"
             style="fill:#414042;fill-opacity:1;fill-rule:nonzero;stroke:none"
             d="m 0,0 c -5.587,-4.889 -17.227,-5.121 -27.469,-6.984 -10.243,-2.096 -19.554,-5.586 -19.554,-17.692 0,-12.338 9.544,-15.365 20.252,-15.365 25.84,0 26.771,20.486 26.771,27.703 L 0,0 Z m -76.354,24.441 c 1.862,30.961 29.564,40.274 56.567,40.274 23.977,0 52.843,-5.354 52.843,-34.221 l 0,-62.619 c 0,-10.941 1.164,-21.883 4.19,-26.771 l -33.521,0 c -1.164,3.724 -2.095,7.681 -2.329,11.64 -10.475,-10.941 -25.838,-14.898 -40.504,-14.898 -22.814,0 -40.971,11.406 -40.971,36.082 0,27.236 20.485,33.754 40.971,36.547 C -18.855,13.502 0,12.803 0,26.305 0,40.504 -9.777,42.6 -21.417,42.6 c -12.57,0 -20.718,-5.121 -21.882,-18.159 l -33.055,0 z" /></g><g
           transform="translate(278.1819,107.8599)"
           id="g4270"><path
             id="path4272"
             style="fill:#414042;fill-opacity:1;fill-rule:nonzero;stroke:none"
             d="m 0,0 -33.987,0 -21.416,80.777 -0.466,0 L -76.354,0 l -34.22,0 -38.178,120.352 34.918,0 22.115,-81.709 0.466,0 20.02,81.709 32.125,0 20.485,-81.475 0.466,0 22.114,81.475 33.987,0 L 0,0 Z" /></g><g
           transform="translate(351.4417,146.9693)"
           id="g4274"><path
             id="path4276"
             style="fill:#414042;fill-opacity:1;fill-rule:nonzero;stroke:none"
             d="m 0,0 c 0.233,-14.434 12.338,-20.254 25.374,-20.254 9.545,0 21.649,3.725 21.649,15.365 0,10.01 -13.734,13.502 -37.478,18.623 -19.089,4.19 -38.178,10.942 -38.178,32.125 0,30.727 26.538,38.643 52.378,38.643 26.305,0 50.515,-8.846 53.075,-38.41 l -31.425,0 C 44.463,58.895 34.686,62.387 22.813,62.387 15.364,62.387 4.424,60.99 4.424,51.213 4.424,39.34 23.047,37.711 41.902,33.289 61.224,28.865 80.08,21.881 80.08,-0.467 c 0,-31.658 -27.47,-41.9 -54.938,-41.9 -27.935,0 -55.171,10.474 -56.568,42.367 L 0,0 Z" /></g><g
           transform="translate(855.2004,179.5591)"
           id="g4278"><path
             id="path4280"
             style="fill:#414042;fill-opacity:1;fill-rule:nonzero;stroke:none"
             d="M 0,0 C -0.932,18.855 -15.132,33.986 -34.686,33.986 -55.404,33.986 -67.741,18.391 -69.139,0 L 0,0 Z m 19.088,-33.521 c -5.354,-26.538 -24.442,-40.971 -51.446,-40.971 -38.41,0 -56.568,26.537 -57.731,63.318 0,36.082 23.744,62.619 56.568,62.619 42.599,0 55.635,-39.806 54.471,-68.904 l -90.089,0 c -0.698,-20.951 11.174,-39.574 37.48,-39.574 16.295,0 27.701,7.914 31.193,23.512 l 19.554,0 z" /></g><g
           transform="translate(945.9622,122.5259)"
           id="g4282"><path
             id="path4284"
             style="fill:#414042;fill-opacity:1;fill-rule:nonzero;stroke:none"
             d="M 0,0 C 26.538,0 36.78,22.812 36.78,45.395 36.78,69.139 26.072,91.02 -1.164,91.02 -28.167,91.02 -37.246,67.975 -37.246,44.463 -37.246,21.883 -25.606,0 0,0 m 55.869,-14.666 -19.787,0 0,16.295 -0.465,0 c -6.518,-13.268 -21.883,-19.088 -38.41,-19.088 -37.014,0 -55.403,29.332 -55.403,63.318 0,33.987 18.157,62.62 54.937,62.62 12.338,0 30.03,-4.655 38.876,-18.856 l 0.465,0 0,61.922 19.787,0 0,-166.211 z" /></g><g
           transform="translate(1126.4885,107.8599)"
           id="g4286"><path
             id="path4288"
             style="fill:#414042;fill-opacity:1;fill-rule:nonzero;stroke:none"
             d="m 0,0 -18.623,0 0,19.09 -0.465,0 C -27.469,4.191 -40.971,-2.793 -58.196,-2.793 c -31.659,0 -41.437,18.158 -41.437,43.996 l 0,79.149 19.787,0 0,-81.475 c 0,-14.666 9.312,-24.211 24.443,-24.211 23.977,0 35.617,16.063 35.617,37.711 l 0,67.975 19.786,0 L 0,0 Z" /></g><g
           transform="translate(1233.8069,189.5689)"
           id="g4290"><path
             id="path4292"
             style="fill:#414042;fill-opacity:1;fill-rule:nonzero;stroke:none"
             d="m 0,0 c -3.026,15.131 -13.502,23.977 -29.797,23.977 -28.633,0 -37.479,-22.581 -37.479,-47.022 0,-22.115 10.009,-43.998 35.151,-43.998 19.089,0 30.495,11.174 33.056,29.332 l 20.253,0 c -4.423,-29.332 -22.814,-46.791 -53.077,-46.791 -36.78,0 -56.334,25.607 -56.334,61.457 0,36.082 18.623,64.481 56.8,64.481 C -4.19,41.436 17.691,28.633 20.485,0 L 0,0 Z" /></g><g
           transform="translate(1347.9641,170.0142)"
           id="g4294"><path
             id="path4296"
             style="fill:#414042;fill-opacity:1;fill-rule:nonzero;stroke:none"
             d="m 0,0 c -7.682,-5.586 -22.58,-5.818 -35.85,-8.146 -13.036,-2.329 -24.21,-6.985 -24.21,-21.651 0,-13.035 11.174,-17.691 23.28,-17.691 26.072,0 36.78,16.295 36.78,27.236 L 0,0 Z m 32.125,-61.687 c -3.492,-2.096 -7.915,-3.26 -14.2,-3.26 -10.243,0 -16.761,5.588 -16.761,18.623 -10.941,-12.803 -25.606,-18.623 -42.367,-18.623 -21.883,0 -39.808,9.777 -39.808,33.754 0,27.236 20.253,33.056 40.739,37.013 21.881,4.19 40.504,2.793 40.504,17.692 0,17.226 -14.2,20.019 -26.77,20.019 -16.761,0 -29.099,-5.121 -30.029,-22.812 l -19.787,0 c 1.164,29.797 24.209,40.271 50.98,40.271 21.649,0 45.161,-4.886 45.161,-33.054 l 0,-61.922 c 0,-9.313 0,-13.502 6.285,-13.502 1.63,0 3.492,0.232 6.053,1.164 l 0,-15.363 z" /></g><g
           transform="translate(1420.7561,228.2115)"
           id="g4298"><path
             id="path4300"
             style="fill:#414042;fill-opacity:1;fill-rule:nonzero;stroke:none"
             d="m 0,0 23.978,0 0,-17.459 -23.978,0 0,-74.725 c 0,-9.078 2.561,-10.709 14.898,-10.709 l 9.08,0 0,-17.459 -15.132,0 c -20.485,0 -28.633,4.192 -28.633,26.305 l 0,76.588 -20.485,0 0,17.459 20.485,0 0,36.082 L 0,36.082 0,0 Z" /></g><g
           transform="translate(1541.0364,179.5591)"
           id="g4302"><path
             id="path4304"
             style="fill:#414042;fill-opacity:1;fill-rule:nonzero;stroke:none"
             d="M 0,0 C -0.932,18.855 -15.132,33.986 -34.686,33.986 -55.404,33.986 -67.741,18.391 -69.139,0 L 0,0 Z m 19.088,-33.521 c -5.354,-26.538 -24.442,-40.971 -51.446,-40.971 -38.41,0 -56.568,26.537 -57.731,63.318 0,36.082 23.744,62.619 56.568,62.619 42.599,0 55.635,-39.806 54.471,-68.904 l -90.089,0 c -0.698,-20.951 11.174,-39.574 37.48,-39.574 16.295,0 27.701,7.914 31.193,23.512 l 19.554,0 z" /></g><g
           transform="translate(474.2551,233.3306)"
           id="g4306"><path
             id="path4308"
             style="fill:#f9ae32;fill-opacity:1;fill-rule:nonzero;stroke:none"
             d="M 0,0 128.837,-49.723 257.673,0 128.837,55.257 0,0 Z m 128.837,-75.621 c -1.526,0 -3.053,0.279 -4.501,0.838 l -161.973,62.511 c -4.741,1.83 -7.903,6.349 -7.997,11.431 -0.094,5.082 2.9,9.715 7.571,11.719 L 123.91,80.347 c 3.147,1.349 6.709,1.349 9.854,0 L 295.735,10.878 c 4.672,-2.004 7.665,-6.637 7.572,-11.719 -0.094,-5.082 -3.255,-9.601 -7.997,-11.431 L 133.338,-74.783 c -1.448,-0.559 -2.975,-0.838 -4.501,-0.838" /></g><g
           transform="translate(603.0833,84.8082)"
           id="g4310"><path
             id="path4312"
             style="fill:#f9ae32;fill-opacity:1;fill-rule:nonzero;stroke:none"
             d="m 0,0 c -0.875,0 -21.687,0.052 -44.931,4.578 -33.695,6.562 -55.252,19.091 -64.068,37.24 -1.439,2.962 -1.651,6.373 -0.59,9.491 l 21.042,61.808 c 2.225,6.535 9.325,10.03 15.861,7.805 6.536,-2.225 10.03,-9.326 7.805,-15.861 L -84.017,48.851 C -77.145,40.305 -61.977,33.41 -40.506,29.187 -19.587,25.071 -0.186,25 0.008,25 0.316,25 32.746,25.143 58.956,34.013 65.502,36.231 72.591,32.719 74.804,26.18 77.018,19.641 73.511,12.546 66.972,10.333 36.789,0.117 1.488,0 0,0" /></g><g
           transform="translate(700.8713,57.563)"
           id="g4314"><path
             id="path4316"
             style="fill:#f9ae32;fill-opacity:1;fill-rule:nonzero;stroke:none"
             d="m 0,0 c -6.903,0 -12.5,5.597 -12.5,12.5 l 0,20 C -12.5,39.403 -6.903,45 0,45 6.903,45 12.5,39.403 12.5,32.5 l 0,-20 C 12.5,5.597 6.903,0 0,0" /></g><g
           transform="translate(700.8713,117.563)"
           id="g4318"><path
             id="path4320"
             style="fill:#f9ae32;fill-opacity:1;fill-rule:nonzero;stroke:none"
             d="m 0,0 c -6.903,0 -12.5,5.597 -12.5,12.5 l 0,59.149 -88.794,36.175 c -6.394,2.605 -9.465,9.9 -6.86,16.292 2.605,6.394 9.899,9.465 16.292,6.861 L 4.716,91.631 C 9.423,89.713 12.5,85.137 12.5,80.055 L 12.5,12.5 C 12.5,5.597 6.903,0 0,0" /></g></g></g></g></svg>